<svg width="42" height="42" viewBox="0 0 42 42" fill="none" xmlns="http://www.w3.org/2000/svg">
<path fill-rule="evenodd" clip-rule="evenodd" d="M24.3814 15.0748C23.4449 15.8928 22.2436 16.3436 21.0001 16.3436C19.7553 16.3436 18.5513 15.8996 17.6045 15.0913L7.04863 6.07911L14.5709 5.47882L21 0L27.4291 5.47882L34.7019 6.0592L24.3814 15.0748ZM35.9408 7.2982L26.9254 17.6187C26.1073 18.5552 25.6565 19.7565 25.6565 21C25.6565 22.2416 26.1164 23.4392 26.9476 24.3616L35.9672 34.3715L36.5212 27.4291L42 21L36.5212 14.5709L35.9408 7.2982ZM34.3716 35.9672L24.3617 26.9475C23.4393 26.1163 22.2417 25.6564 21.0001 25.6564C19.7588 25.6564 18.5618 26.1178 17.6417 26.9509L7.67986 35.9713L14.5709 36.5212L21 42L27.4291 36.5212L34.3716 35.9672ZM6.06679 34.797L15.0812 24.3868C15.8955 23.4464 16.3438 22.244 16.3438 21C16.3438 19.7581 15.8852 18.5599 15.0561 17.6353L6.0369 7.57753L5.47882 14.5709L0 21L5.47882 27.4291L6.06679 34.797Z" fill="#45DEBA"/>
<circle cx="21" cy="21" r="3" fill="#06CFA0"/>
</svg>
